<?xml version="1.0" standalone="no"?><!DOCTYPE svg PUBLIC "-//W3C//DTD SVG 1.1//EN" "http://www.w3.org/Graphics/SVG/1.1/DTD/svg11.dtd"><svg t="1745716621173" class="icon" viewBox="0 0 1024 1024" version="1.1" xmlns="http://www.w3.org/2000/svg" p-id="14748" xmlns:xlink="http://www.w3.org/1999/xlink" width="200" height="200"><path d="M458.149647 486.219294L360.267294 389.421176a35.960471 35.960471 0 0 1-9.637647-24.756705 33.129412 33.129412 0 0 1 10.24-24.214589 33.129412 33.129412 0 0 1 24.154353-10.24c9.336471 0 17.588706 3.252706 24.756706 9.697883L506.578824 437.790118l96.858352-97.882353a33.490824 33.490824 0 0 1 33.852236-8.613647c12.528941 3.614118 20.600471 11.625412 24.214588 24.214588a33.370353 33.370353 0 0 1-8.613647 33.852235L555.008 486.219294l97.882353 96.798118a33.490824 33.490824 0 0 1 8.613647 33.852235 33.189647 33.189647 0 0 1-24.214588 24.214588 33.370353 33.370353 0 0 1-33.852236-8.613647L506.578824 534.588235 409.780706 632.470588a35.960471 35.960471 0 0 1-24.696471 9.637647 33.129412 33.129412 0 0 1-24.274823-10.179764 33.129412 33.129412 0 0 1-10.24-24.214589c0-9.276235 3.252706-17.528471 9.697882-24.69647l97.882353-96.798118z m48.429177 413.033412c116.856471-2.831059 214.196706-43.188706 292.020705-121.012706 77.763765-77.824 118.121412-175.164235 121.012706-292.020706-2.891294-116.856471-43.188706-214.196706-121.072941-292.020706-77.703529-77.763765-175.104-118.121412-291.96047-121.012706-116.856471 2.891294-214.256941 43.188706-292.020706 121.072942C136.734118 271.962353 96.376471 369.302588 93.485176 486.159059c2.891294 116.856471 43.248941 214.256941 121.072942 292.020706 77.824 77.824 175.164235 118.121412 292.020706 121.072941z m0 68.848941c-136.252235-3.614118-249.735529-50.718118-340.449883-141.432471C75.414588 735.954824 28.250353 622.471529 24.696471 486.219294c3.614118-136.252235 50.718118-249.735529 141.43247-340.449882C256.843294 55.055059 370.326588 7.951059 506.578824 4.336941c136.252235 3.614118 249.735529 50.718118 340.449882 141.432471 90.714353 90.714353 137.818353 204.197647 141.43247 340.449882-3.614118 136.252235-50.718118 249.735529-141.43247 340.449882-90.714353 90.714353-204.197647 137.878588-340.449882 141.432471z" p-id="14749" fill="#e6e6e6"></path></svg>